<mxfile host="app.diagrams.net" modified="2021-03-22T01:40:39.318Z" agent="5.0 (Windows NT 10.0; Win64; x64) AppleWebKit/537.36 (KHTML, like Gecko) Chrome/89.0.4389.82 Safari/537.36" etag="9b39dOOrL5s2Y3eASSzi" version="14.4.9" type="github">
  <diagram id="keqr0E5Gyz6Kl2WQPCfh" name="Page-1">
    <mxGraphModel dx="778" dy="559" grid="1" gridSize="10" guides="1" tooltips="1" connect="1" arrows="1" fold="1" page="1" pageScale="1" pageWidth="827" pageHeight="1169" math="0" shadow="0">
      <root>
        <mxCell id="0" />
        <mxCell id="1" parent="0" />
        <mxCell id="jz3T0KPEXfVVJIKZZMcC-1" value="Keypad" style="swimlane;fontStyle=0;childLayout=stackLayout;horizontal=1;startSize=26;fillColor=none;horizontalStack=0;resizeParent=1;resizeParentMax=0;resizeLast=0;collapsible=1;marginBottom=0;sketch=1;" vertex="1" parent="1">
          <mxGeometry x="300" y="120" width="140" height="104" as="geometry" />
        </mxCell>
        <mxCell id="jz3T0KPEXfVVJIKZZMcC-2" value="playCommand" style="text;strokeColor=none;fillColor=none;align=left;verticalAlign=top;spacingLeft=4;spacingRight=4;overflow=hidden;rotatable=0;points=[[0,0.5],[1,0.5]];portConstraint=eastwest;sketch=1;" vertex="1" parent="jz3T0KPEXfVVJIKZZMcC-1">
          <mxGeometry y="26" width="140" height="26" as="geometry" />
        </mxCell>
        <mxCell id="jz3T0KPEXfVVJIKZZMcC-3" value="rewindComand" style="text;strokeColor=none;fillColor=none;align=left;verticalAlign=top;spacingLeft=4;spacingRight=4;overflow=hidden;rotatable=0;points=[[0,0.5],[1,0.5]];portConstraint=eastwest;sketch=1;" vertex="1" parent="jz3T0KPEXfVVJIKZZMcC-1">
          <mxGeometry y="52" width="140" height="26" as="geometry" />
        </mxCell>
        <mxCell id="jz3T0KPEXfVVJIKZZMcC-4" value="stopCommand" style="text;strokeColor=none;fillColor=none;align=left;verticalAlign=top;spacingLeft=4;spacingRight=4;overflow=hidden;rotatable=0;points=[[0,0.5],[1,0.5]];portConstraint=eastwest;sketch=1;" vertex="1" parent="jz3T0KPEXfVVJIKZZMcC-1">
          <mxGeometry y="78" width="140" height="26" as="geometry" />
        </mxCell>
        <mxCell id="jz3T0KPEXfVVJIKZZMcC-5" value="«interface»&lt;br&gt;&lt;b&gt;Command&lt;/b&gt;" style="html=1;sketch=1;" vertex="1" parent="1">
          <mxGeometry x="600" y="150" width="110" height="50" as="geometry" />
        </mxCell>
        <mxCell id="jz3T0KPEXfVVJIKZZMcC-7" value="Relation" style="endArrow=open;html=1;endSize=12;startArrow=diamondThin;startSize=14;startFill=0;edgeStyle=orthogonalEdgeStyle;sketch=1;" edge="1" parent="1">
          <mxGeometry relative="1" as="geometry">
            <mxPoint x="440" y="180" as="sourcePoint" />
            <mxPoint x="600" y="180" as="targetPoint" />
          </mxGeometry>
        </mxCell>
        <mxCell id="jz3T0KPEXfVVJIKZZMcC-8" value="1" style="edgeLabel;resizable=0;html=1;align=left;verticalAlign=top;sketch=1;" connectable="0" vertex="1" parent="jz3T0KPEXfVVJIKZZMcC-7">
          <mxGeometry x="-1" relative="1" as="geometry" />
        </mxCell>
        <mxCell id="jz3T0KPEXfVVJIKZZMcC-9" value="3" style="edgeLabel;resizable=0;html=1;align=right;verticalAlign=top;sketch=1;" connectable="0" vertex="1" parent="jz3T0KPEXfVVJIKZZMcC-7">
          <mxGeometry x="1" relative="1" as="geometry" />
        </mxCell>
        <mxCell id="jz3T0KPEXfVVJIKZZMcC-10" value="PlayCommand" style="swimlane;fontStyle=1;align=center;verticalAlign=top;childLayout=stackLayout;horizontal=1;startSize=26;horizontalStack=0;resizeParent=1;resizeParentMax=0;resizeLast=0;collapsible=1;marginBottom=0;sketch=1;" vertex="1" parent="1">
          <mxGeometry x="310" y="340" width="150" height="86" as="geometry" />
        </mxCell>
        <mxCell id="jz3T0KPEXfVVJIKZZMcC-11" value="myAudio" style="text;strokeColor=none;fillColor=none;align=left;verticalAlign=top;spacingLeft=4;spacingRight=4;overflow=hidden;rotatable=0;points=[[0,0.5],[1,0.5]];portConstraint=eastwest;sketch=1;" vertex="1" parent="jz3T0KPEXfVVJIKZZMcC-10">
          <mxGeometry y="26" width="150" height="26" as="geometry" />
        </mxCell>
        <mxCell id="jz3T0KPEXfVVJIKZZMcC-12" value="" style="line;strokeWidth=1;fillColor=none;align=left;verticalAlign=middle;spacingTop=-1;spacingLeft=3;spacingRight=3;rotatable=0;labelPosition=right;points=[];portConstraint=eastwest;sketch=1;" vertex="1" parent="jz3T0KPEXfVVJIKZZMcC-10">
          <mxGeometry y="52" width="150" height="8" as="geometry" />
        </mxCell>
        <mxCell id="jz3T0KPEXfVVJIKZZMcC-13" value="execute() : void" style="text;strokeColor=none;fillColor=none;align=left;verticalAlign=top;spacingLeft=4;spacingRight=4;overflow=hidden;rotatable=0;points=[[0,0.5],[1,0.5]];portConstraint=eastwest;sketch=1;" vertex="1" parent="jz3T0KPEXfVVJIKZZMcC-10">
          <mxGeometry y="60" width="150" height="26" as="geometry" />
        </mxCell>
        <mxCell id="jz3T0KPEXfVVJIKZZMcC-23" style="edgeStyle=orthogonalEdgeStyle;rounded=1;sketch=1;orthogonalLoop=1;jettySize=auto;html=1;exitX=0.5;exitY=0;exitDx=0;exitDy=0;entryX=0.5;entryY=1;entryDx=0;entryDy=0;shadow=0;dashed=1;" edge="1" parent="1" source="jz3T0KPEXfVVJIKZZMcC-14" target="jz3T0KPEXfVVJIKZZMcC-5">
          <mxGeometry relative="1" as="geometry" />
        </mxCell>
        <mxCell id="jz3T0KPEXfVVJIKZZMcC-14" value="RewindCommand" style="swimlane;fontStyle=1;align=center;verticalAlign=top;childLayout=stackLayout;horizontal=1;startSize=26;horizontalStack=0;resizeParent=1;resizeParentMax=0;resizeLast=0;collapsible=1;marginBottom=0;sketch=1;" vertex="1" parent="1">
          <mxGeometry x="500" y="340" width="150" height="86" as="geometry" />
        </mxCell>
        <mxCell id="jz3T0KPEXfVVJIKZZMcC-15" value="myAudio" style="text;strokeColor=none;fillColor=none;align=left;verticalAlign=top;spacingLeft=4;spacingRight=4;overflow=hidden;rotatable=0;points=[[0,0.5],[1,0.5]];portConstraint=eastwest;sketch=1;" vertex="1" parent="jz3T0KPEXfVVJIKZZMcC-14">
          <mxGeometry y="26" width="150" height="26" as="geometry" />
        </mxCell>
        <mxCell id="jz3T0KPEXfVVJIKZZMcC-16" value="" style="line;strokeWidth=1;fillColor=none;align=left;verticalAlign=middle;spacingTop=-1;spacingLeft=3;spacingRight=3;rotatable=0;labelPosition=right;points=[];portConstraint=eastwest;sketch=1;" vertex="1" parent="jz3T0KPEXfVVJIKZZMcC-14">
          <mxGeometry y="52" width="150" height="8" as="geometry" />
        </mxCell>
        <mxCell id="jz3T0KPEXfVVJIKZZMcC-17" value="execute() : void" style="text;strokeColor=none;fillColor=none;align=left;verticalAlign=top;spacingLeft=4;spacingRight=4;overflow=hidden;rotatable=0;points=[[0,0.5],[1,0.5]];portConstraint=eastwest;sketch=1;" vertex="1" parent="jz3T0KPEXfVVJIKZZMcC-14">
          <mxGeometry y="60" width="150" height="26" as="geometry" />
        </mxCell>
        <mxCell id="jz3T0KPEXfVVJIKZZMcC-24" style="edgeStyle=orthogonalEdgeStyle;rounded=1;sketch=1;orthogonalLoop=1;jettySize=auto;html=1;exitX=0.5;exitY=0;exitDx=0;exitDy=0;shadow=0;dashed=1;" edge="1" parent="1" source="jz3T0KPEXfVVJIKZZMcC-18" target="jz3T0KPEXfVVJIKZZMcC-5">
          <mxGeometry relative="1" as="geometry" />
        </mxCell>
        <mxCell id="jz3T0KPEXfVVJIKZZMcC-18" value="StopCommand" style="swimlane;fontStyle=1;align=center;verticalAlign=top;childLayout=stackLayout;horizontal=1;startSize=26;horizontalStack=0;resizeParent=1;resizeParentMax=0;resizeLast=0;collapsible=1;marginBottom=0;sketch=1;dashed=1;" vertex="1" parent="1">
          <mxGeometry x="690" y="340" width="150" height="86" as="geometry" />
        </mxCell>
        <mxCell id="jz3T0KPEXfVVJIKZZMcC-19" value="myAudio" style="text;strokeColor=none;fillColor=none;align=left;verticalAlign=top;spacingLeft=4;spacingRight=4;overflow=hidden;rotatable=0;points=[[0,0.5],[1,0.5]];portConstraint=eastwest;sketch=1;" vertex="1" parent="jz3T0KPEXfVVJIKZZMcC-18">
          <mxGeometry y="26" width="150" height="26" as="geometry" />
        </mxCell>
        <mxCell id="jz3T0KPEXfVVJIKZZMcC-20" value="" style="line;strokeWidth=1;fillColor=none;align=left;verticalAlign=middle;spacingTop=-1;spacingLeft=3;spacingRight=3;rotatable=0;labelPosition=right;points=[];portConstraint=eastwest;sketch=1;" vertex="1" parent="jz3T0KPEXfVVJIKZZMcC-18">
          <mxGeometry y="52" width="150" height="8" as="geometry" />
        </mxCell>
        <mxCell id="jz3T0KPEXfVVJIKZZMcC-21" value="execute() : void" style="text;strokeColor=none;fillColor=none;align=left;verticalAlign=top;spacingLeft=4;spacingRight=4;overflow=hidden;rotatable=0;points=[[0,0.5],[1,0.5]];portConstraint=eastwest;sketch=1;" vertex="1" parent="jz3T0KPEXfVVJIKZZMcC-18">
          <mxGeometry y="60" width="150" height="26" as="geometry" />
        </mxCell>
        <mxCell id="jz3T0KPEXfVVJIKZZMcC-22" value="" style="endArrow=block;dashed=1;endFill=0;endSize=12;html=1;exitX=0.5;exitY=0;exitDx=0;exitDy=0;entryX=0.5;entryY=1;entryDx=0;entryDy=0;sketch=1;rounded=1;shadow=0;edgeStyle=orthogonalEdgeStyle;" edge="1" parent="1" source="jz3T0KPEXfVVJIKZZMcC-10" target="jz3T0KPEXfVVJIKZZMcC-5">
          <mxGeometry width="160" relative="1" as="geometry">
            <mxPoint x="520" y="290" as="sourcePoint" />
            <mxPoint x="680" y="290" as="targetPoint" />
          </mxGeometry>
        </mxCell>
        <mxCell id="jz3T0KPEXfVVJIKZZMcC-25" value="AuditPlayer" style="swimlane;fontStyle=0;childLayout=stackLayout;horizontal=1;startSize=26;fillColor=none;horizontalStack=0;resizeParent=1;resizeParentMax=0;resizeLast=0;collapsible=1;marginBottom=0;dashed=1;sketch=1;" vertex="1" parent="1">
          <mxGeometry x="490" y="520" width="190" height="104" as="geometry" />
        </mxCell>
        <mxCell id="jz3T0KPEXfVVJIKZZMcC-26" value="play() ：void" style="text;strokeColor=none;fillColor=none;align=left;verticalAlign=top;spacingLeft=4;spacingRight=4;overflow=hidden;rotatable=0;points=[[0,0.5],[1,0.5]];portConstraint=eastwest;" vertex="1" parent="jz3T0KPEXfVVJIKZZMcC-25">
          <mxGeometry y="26" width="190" height="26" as="geometry" />
        </mxCell>
        <mxCell id="jz3T0KPEXfVVJIKZZMcC-27" value="rewind() : void" style="text;strokeColor=none;fillColor=none;align=left;verticalAlign=top;spacingLeft=4;spacingRight=4;overflow=hidden;rotatable=0;points=[[0,0.5],[1,0.5]];portConstraint=eastwest;" vertex="1" parent="jz3T0KPEXfVVJIKZZMcC-25">
          <mxGeometry y="52" width="190" height="26" as="geometry" />
        </mxCell>
        <mxCell id="jz3T0KPEXfVVJIKZZMcC-28" value="stop() : void" style="text;strokeColor=none;fillColor=none;align=left;verticalAlign=top;spacingLeft=4;spacingRight=4;overflow=hidden;rotatable=0;points=[[0,0.5],[1,0.5]];portConstraint=eastwest;" vertex="1" parent="jz3T0KPEXfVVJIKZZMcC-25">
          <mxGeometry y="78" width="190" height="26" as="geometry" />
        </mxCell>
      </root>
    </mxGraphModel>
  </diagram>
</mxfile>
